<svg version="1.1" xmlns="http://www.w3.org/2000/svg" xmlns:xlink="http://www.w3.org/1999/xlink" width="500" height="500" viewBox="0 0 500 500"><defs/><g transform="scale(1,1)"><g transform="scale(1,1)"><rect fill="rgb(255,255,255)" stroke="none" x="0" y="0" width="500" height="500" fill-opacity="1"/></g><g/><g/><g/><g/><g/><g/><g/><g/><g/><g/><g/><g/><g/><g/><g/><g/><g/><g/><g/><g/><g/><g/><g/><g/><g/><g/><g/><g/><g/><g/><g/><g/><g/><g/><g/><g/><g/><g/><g/><g/><g/><g/><g/><g/><g/><g/><g/><g/><g/><g/><g/><g/><g/><g/><g/><g/><g/><g/><g/><g/><g/><g/><g/><g/><g/><g/><g/><g/><g/><g/><g/><g/><g/><g/><g/><g/><g/><g/><g/><g/><g/><g/><g/><g/><g/><g/><g/><g/><g/><g/><g/><g/><g/><g/><g/><g/><g/><g/><g/><g/><g/><g/><g/><g/><g/><g/><g/><g/><g/><g/><g/><g/><g/><g/><g/><g/><g/><g/><g/><g/><g/><g/><g/><g/><g/><g/><g/><g/><g/><g/><g/><g/><g/><g/><g/><g/><g/><g/><g/><g/><g/><g/><g/><g/><g/><g/><g/><g/><g/><g/><g/><g/><g/><g/><g/><g/><g/><g/><g/><g/><g/><g/><g/><g/><g/><g/><g/><g/><g/><g/><g/><g/><g/><g/><g/><g/><g/><g/><g/><g/><g/><g/><g/><g/><g/><g/><g/><g/><g/><g/><g/><g/><g/><g/><g/><g/><g/><g/><g/><g/><g/><g/><g/><g/><g/><g/><g/><g/><g/><g/><g/><g/><g/><g/><g/><g/><g/><g/><g/><g/><g/><g/><g/><g/><g/><g/><g/><g/><g/><g/><g/><g/><g/><g/><g/><g/><g/><g/><g/><g/><g/><g/><g/><g/><g/><g/><g/><g/><g/><g/><g/><g/><g/><g/><g/><g/><g/><g/><g/><g/><g/><g/><g/><g/><g/><g/><g/><g/><g/><g/><g/><g/><g/><g/><g/><g/><g/><g/><g/><g/><g/><g/><g/><g/><g/><g/><g/><g/><g/><g/><g/><g/><g/><g/><g/><g/><g/><g/><g/><g/><g/><g/><g/><g/><g/><g/><g/><g/><g/><g/><g/><g/><g/><g/><g/><g/><g/><g/><g/><g/><g/><g/><g/><g/><g/><g/><g/><g/><g/><g/><g/><g/><g/><g/><g/><g/><g/><g/><g/><g/><g/><g/><g/><g/><g/><g/><g/><g/><g/><g/><g/><g/><g/><g/><g/><g/><g/><g/><g/><g/><g/><g/><g/><g/><g/><g/><g/><g/><g/><g/><g/><g/><g/><g/><g/><g/><g/><g/><g/><g/><g/><g/><g/><g/><g/><g/><g/><g/><g/><g/><g/><g/><g/><g/><g/><g/><g/><g/><g/><g/><g/><g/><g/><g/><g/><g/><g/><g/><g/><g/><g/><g/><g/><g/><g/><g/><g/><g/><g/><g/><g/><g/><g/><g/><g/><g/><g/><g/><g/><g/><g/><g/><g/><g/><g/><g/><g/><g/><g/><g/><g/><g/><g/><g/><g/><g/><g/><g/><g transform="translate(80,480)"><path fill="rgb(255,0,0)" stroke="none" paint-order="stroke fill markers" d=" M 0 1.32 C 0 0.5909841302640001 0.5909841302640001 0 1.32 0 C 2.049015869736 0 2.64 0.5909841302640001 2.64 1.32 C 2.64 2.049015869736 2.049015869736 2.64 1.32 2.64 C 0.5909841302640001 2.64 0 2.049015869736 0 1.32 Z" fill-opacity="1"/></g><g transform="translate(80,490)"><path fill="rgb(255,0,0)" stroke="none" paint-order="stroke fill markers" d=" M 0 3.5599999999999996 C 0 1.5938662907119998 1.5938662907119998 0 3.5599999999999996 0 C 5.526133709288 0 7.119999999999999 1.5938662907119998 7.119999999999999 3.5599999999999996 C 7.119999999999999 5.526133709288 5.526133709288 7.119999999999999 3.5599999999999996 7.119999999999999 C 1.5938662907119998 7.119999999999999 0 5.526133709288 0 3.5599999999999996 Z" fill-opacity="1"/></g><g/><g/><g/><g/><g/><g/><g/><g/><g/><g/><g/><g/><g/><g/><g/><g/><g/><g/><g/><g/><g/><g/><g/><g/><g/><g/><g/><g/><g/><g/><g/><g/><g/><g/><g/><g/><g/><g/><g/><g/><g/><g/><g/><g/><g/><g/><g/><g/><g/><g/><g/><g/><g/><g/><g/><g/><g/><g/><g/><g/><g/><g/><g/><g/><g/><g/><g/><g/><g/><g/><g/><g/><g/><g/><g/><g/><g/><g/><g/><g/><g/><g/><g/><g/><g/><g/><g/><g/><g/><g/><g/><g/><g/><g/><g/><g transform="translate(100,450)"><path fill="rgb(255,0,0)" stroke="none" paint-order="stroke fill markers" d=" M 0 4.680000000000001 C 0 2.095307370936 2.095307370936 0 4.680000000000001 0 C 7.264692629064001 0 9.360000000000001 2.095307370936 9.360000000000001 4.680000000000001 C 9.360000000000001 7.264692629064001 7.264692629064001 9.360000000000001 4.680000000000001 9.360000000000001 C 2.095307370936 9.360000000000001 0 7.264692629064001 0 4.680000000000001 Z" fill-opacity="1"/></g><g transform="translate(100,460)"><path fill="rgb(255,0,0)" stroke="none" paint-order="stroke fill markers" d=" M 0 4.16 C 0 1.8624954408320002 1.8624954408320002 0 4.16 0 C 6.457504559168 0 8.32 1.8624954408320002 8.32 4.16 C 8.32 6.457504559168 6.457504559168 8.32 4.16 8.32 C 1.8624954408320002 8.32 0 6.457504559168 0 4.16 Z" fill-opacity="1"/></g><g transform="translate(100,470)"><path fill="rgb(255,0,0)" stroke="none" paint-order="stroke fill markers" d=" M 0 3.3200000000000003 C 0 1.4864146306640003 1.4864146306640003 0 3.3200000000000003 0 C 5.1535853693360005 0 6.640000000000001 1.4864146306640003 6.640000000000001 3.3200000000000003 C 6.640000000000001 5.1535853693360005 5.1535853693360005 6.640000000000001 3.3200000000000003 6.640000000000001 C 1.4864146306640003 6.640000000000001 0 5.1535853693360005 0 3.3200000000000003 Z" fill-opacity="1"/></g><g/><g/><g/><g/><g/><g/><g/><g/><g/><g/><g/><g/><g/><g/><g/><g/><g/><g/><g/><g/><g/><g/><g/><g/><g/><g/><g/><g/><g/><g/><g/><g/><g/><g/><g/><g/><g/><g/><g/><g/><g/><g/><g/><g/><g/><g/><g/><g/><g transform="translate(110,460)"><path fill="rgb(255,0,0)" stroke="none" paint-order="stroke fill markers" d=" M 0 4.96 C 0 2.220667640992 2.220667640992 0 4.96 0 C 7.699332359008 0 9.92 2.220667640992 9.92 4.96 C 9.92 7.699332359008 7.699332359008 9.92 4.96 9.92 C 2.220667640992 9.92 0 7.699332359008 0 4.96 Z" fill-opacity="1"/></g><g transform="translate(110,470)"><path fill="rgb(255,0,0)" stroke="none" paint-order="stroke fill markers" d=" M 0 3.5599999999999996 C 0 1.5938662907119998 1.5938662907119998 0 3.5599999999999996 0 C 5.526133709288 0 7.119999999999999 1.5938662907119998 7.119999999999999 3.5599999999999996 C 7.119999999999999 5.526133709288 5.526133709288 7.119999999999999 3.5599999999999996 7.119999999999999 C 1.5938662907119998 7.119999999999999 0 5.526133709288 0 3.5599999999999996 Z" fill-opacity="1"/></g><g/><g/><g/><g/><g/><g/><g/><g/><g/><g/><g/><g/><g/><g/><g/><g/><g/><g/><g/><g/><g/><g/><g/><g/><g/><g/><g/><g/><g/><g/><g/><g/><g/><g/><g/><g/><g/><g/><g/><g/><g/><g/><g/><g/><g/><g/><g/><g/><g/><g/><g/><g/><g/><g/><g/><g/><g/><g/><g/><g/><g/><g/><g/><g/><g/><g/><g/><g/><g/><g/><g/><g/><g/><g/><g/><g/><g/><g/><g/><g/><g/><g/><g/><g/><g/><g/><g/><g/><g/><g/><g/><g/><g/><g/><g/><g/><g/><g/><g transform="translate(130,460)"><path fill="rgb(255,0,0)" stroke="none" paint-order="stroke fill markers" d=" M 0 4.5200000000000005 C 0 2.0236729309040005 2.0236729309040005 0 4.5200000000000005 0 C 7.0163270690960005 0 9.040000000000001 2.0236729309040005 9.040000000000001 4.5200000000000005 C 9.040000000000001 7.0163270690960005 7.0163270690960005 9.040000000000001 4.5200000000000005 9.040000000000001 C 2.0236729309040005 9.040000000000001 0 7.0163270690960005 0 4.5200000000000005 Z" fill-opacity="1"/></g><g transform="translate(130,470)"><path fill="rgb(255,0,0)" stroke="none" paint-order="stroke fill markers" d=" M 0 3.4399999999999995 C 0 1.5401404606879998 1.5401404606879998 0 3.4399999999999995 0 C 5.339859539311999 0 6.879999999999999 1.5401404606879998 6.879999999999999 3.4399999999999995 C 6.879999999999999 5.339859539311999 5.339859539311999 6.879999999999999 3.4399999999999995 6.879999999999999 C 1.5401404606879998 6.879999999999999 0 5.339859539311999 0 3.4399999999999995 Z" fill-opacity="1"/></g><g/><g/><g/><g/><g/><g/><g/><g/><g/><g/><g/><g/><g/><g/><g/><g/><g/><g/><g/><g/><g/><g/><g/><g/><g/><g/><g/><g/><g/><g/><g/><g/><g/><g/><g/><g/><g/><g/><g/><g/><g/><g/><g/><g/><g/><g/><g/><g/><g/><g/><g/><g/><g/><g/><g/><g/><g/><g/><g/><g/><g/><g/><g/><g/><g/><g/><g/><g/><g/><g/><g/><g transform="translate(150,190)"><path fill="rgb(255,0,0)" stroke="none" paint-order="stroke fill markers" d=" M 0 3.6799999999999997 C 0 1.6475921207359998 1.6475921207359998 0 3.6799999999999997 0 C 5.712407879263999 0 7.359999999999999 1.6475921207359998 7.359999999999999 3.6799999999999997 C 7.359999999999999 5.712407879263999 5.712407879263999 7.359999999999999 3.6799999999999997 7.359999999999999 C 1.6475921207359998 7.359999999999999 0 5.712407879263999 0 3.6799999999999997 Z" fill-opacity="1"/></g><g transform="translate(150,200)"><path fill="rgb(255,0,0)" stroke="none" paint-order="stroke fill markers" d=" M 0 4.28 C 0 1.916221270856 1.916221270856 0 4.28 0 C 6.6437787291440005 0 8.56 1.916221270856 8.56 4.28 C 8.56 6.6437787291440005 6.6437787291440005 8.56 4.28 8.56 C 1.916221270856 8.56 0 6.6437787291440005 0 4.28 Z" fill-opacity="1"/></g><g transform="translate(150,210)"><path fill="rgb(255,0,0)" stroke="none" paint-order="stroke fill markers" d=" M 0 2.16 C 0 0.9670649404320002 0.9670649404320002 0 2.16 0 C 3.352935059568 0 4.32 0.9670649404320002 4.32 2.16 C 4.32 3.352935059568 3.352935059568 4.32 2.16 4.32 C 0.9670649404320002 4.32 0 3.352935059568 0 2.16 Z" fill-opacity="1"/></g><g/><g/><g/><g/><g/><g/><g/><g/><g/><g/><g/><g/><g/><g/><g/><g/><g/><g/><g/><g/><g/><g/><g/><g/><g/><g transform="translate(150,470)"><path fill="rgb(255,0,0)" stroke="none" paint-order="stroke fill markers" d=" M 0 4 C 0 1.7908610008 1.7908610008 0 4 0 C 6.2091389992 0 8 1.7908610008 8 4 C 8 6.2091389992 6.2091389992 8 4 8 C 1.7908610008 8 0 6.2091389992 0 4 Z" fill-opacity="1"/></g><g transform="translate(150,480)"><path fill="rgb(255,0,0)" stroke="none" paint-order="stroke fill markers" d=" M 0 3.24 C 0 1.4505974106480002 1.4505974106480002 0 3.24 0 C 5.029402589352 0 6.48 1.4505974106480002 6.48 3.24 C 6.48 5.029402589352 5.029402589352 6.48 3.24 6.48 C 1.4505974106480002 6.48 0 5.029402589352 0 3.24 Z" fill-opacity="1"/></g><g/><g/><g/><g/><g/><g/><g/><g/><g/><g/><g/><g/><g/><g/><g/><g/><g/><g/><g/><g/><g transform="translate(160,190)"><path fill="rgb(255,0,0)" stroke="none" paint-order="stroke fill markers" d=" M 0 3.16 C 0 1.4147801906320001 1.4147801906320001 0 3.16 0 C 4.905219809368 0 6.32 1.4147801906320001 6.32 3.16 C 6.32 4.905219809368 4.905219809368 6.32 3.16 6.32 C 1.4147801906320001 6.32 0 4.905219809368 0 3.16 Z" fill-opacity="1"/></g><g transform="translate(160,200)"><path fill="rgb(255,0,0)" stroke="none" paint-order="stroke fill markers" d=" M 0 0.56 C 0 0.250720540112 0.250720540112 0 0.56 0 C 0.869279459888 0 1.12 0.250720540112 1.12 0.56 C 1.12 0.869279459888 0.869279459888 1.12 0.56 1.12 C 0.250720540112 1.12 0 0.869279459888 0 0.56 Z" fill-opacity="1"/></g><g transform="translate(160,210)"><path fill="rgb(255,0,0)" stroke="none" paint-order="stroke fill markers" d=" M 0 4.2 C 0 1.8804040508400002 1.8804040508400002 0 4.2 0 C 6.51959594916 0 8.4 1.8804040508400002 8.4 4.2 C 8.4 6.51959594916 6.51959594916 8.4 4.2 8.4 C 1.8804040508400002 8.4 0 6.51959594916 0 4.2 Z" fill-opacity="1"/></g><g/><g/><g/><g/><g/><g/><g/><g/><g/><g/><g/><g/><g/><g/><g/><g/><g/><g/><g/><g/><g/><g/><g/><g/><g/><g/><g transform="translate(160,480)"><path fill="rgb(255,0,0)" stroke="none" paint-order="stroke fill markers" d=" M 0 2.7600000000000002 C 0 1.2356940905520002 1.2356940905520002 0 2.7600000000000002 0 C 4.284305909448 0 5.5200000000000005 1.2356940905520002 5.5200000000000005 2.7600000000000002 C 5.5200000000000005 4.284305909448 4.284305909448 5.5200000000000005 2.7600000000000002 5.5200000000000005 C 1.2356940905520002 5.5200000000000005 0 4.284305909448 0 2.7600000000000002 Z" fill-opacity="1"/></g><g transform="translate(160,490)"><path fill="rgb(255,0,0)" stroke="none" paint-order="stroke fill markers" d=" M 0 4.5600000000000005 C 0 2.0415815409120004 2.0415815409120004 0 4.5600000000000005 0 C 7.078418459088001 0 9.120000000000001 2.0415815409120004 9.120000000000001 4.5600000000000005 C 9.120000000000001 7.078418459088001 7.078418459088001 9.120000000000001 4.5600000000000005 9.120000000000001 C 2.0415815409120004 9.120000000000001 0 7.078418459088001 0 4.5600000000000005 Z" fill-opacity="1"/></g><g/><g/><g/><g/><g/><g/><g/><g/><g/><g/><g/><g/><g/><g/><g/><g/><g/><g/><g/><g/><g/><g/><g transform="translate(170,220)"><path fill="rgb(255,0,0)" stroke="none" paint-order="stroke fill markers" d=" M 0 4.640000000000001 C 0 2.0773987609280002 2.0773987609280002 0 4.640000000000001 0 C 7.202601239072001 0 9.280000000000001 2.0773987609280002 9.280000000000001 4.640000000000001 C 9.280000000000001 7.202601239072001 7.202601239072001 9.280000000000001 4.640000000000001 9.280000000000001 C 2.0773987609280002 9.280000000000001 0 7.202601239072001 0 4.640000000000001 Z" fill-opacity="1"/></g><g/><g transform="translate(170,240)"><path fill="rgb(255,0,0)" stroke="none" paint-order="stroke fill markers" d=" M 0 4.92 C 0 2.202759030984 2.202759030984 0 4.92 0 C 7.637240969016 0 9.84 2.202759030984 9.84 4.92 C 9.84 7.637240969016 7.637240969016 9.84 4.92 9.84 C 2.202759030984 9.84 0 7.637240969016 0 4.92 Z" fill-opacity="1"/></g><g transform="translate(170,250)"><path fill="rgb(255,0,0)" stroke="none" paint-order="stroke fill markers" d=" M 0 3.3600000000000003 C 0 1.5043232406720002 1.5043232406720002 0 3.3600000000000003 0 C 5.215676759328001 0 6.720000000000001 1.5043232406720002 6.720000000000001 3.3600000000000003 C 6.720000000000001 5.215676759328001 5.215676759328001 6.720000000000001 3.3600000000000003 6.720000000000001 C 1.5043232406720002 6.720000000000001 0 5.215676759328001 0 3.3600000000000003 Z" fill-opacity="1"/></g><g/><g/><g/><g/><g/><g/><g/><g/><g/><g/><g/><g/><g/><g/><g/><g/><g/><g/><g/><g/><g/><g/><g/><g transform="translate(170,490)"><path fill="rgb(255,0,0)" stroke="none" paint-order="stroke fill markers" d=" M 0 4.88 C 0 2.1848504209760002 2.1848504209760002 0 4.88 0 C 7.575149579024 0 9.76 2.1848504209760002 9.76 4.88 C 9.76 7.575149579024 7.575149579024 9.76 4.88 9.76 C 2.1848504209760002 9.76 0 7.575149579024 0 4.88 Z" fill-opacity="1"/></g><g/><g/><g/><g/><g/><g/><g/><g/><g/><g/><g/><g/><g/><g/><g/><g/><g/><g/><g/><g/><g/><g/><g/><g/><g/><g/><g transform="translate(180,260)"><path fill="rgb(255,0,0)" stroke="none" paint-order="stroke fill markers" d=" M 0 2.84 C 0 1.271511310568 1.271511310568 0 2.84 0 C 4.408488689432 0 5.68 1.271511310568 5.68 2.84 C 5.68 4.408488689432 4.408488689432 5.68 2.84 5.68 C 1.271511310568 5.68 0 4.408488689432 0 2.84 Z" fill-opacity="1"/></g><g transform="translate(180,270)"><path fill="rgb(255,0,0)" stroke="none" paint-order="stroke fill markers" d=" M 0 2.2 C 0 0.9849735504400001 0.9849735504400001 0 2.2 0 C 3.41502644956 0 4.4 0.9849735504400001 4.4 2.2 C 4.4 3.41502644956 3.41502644956 4.4 2.2 4.4 C 0.9849735504400001 4.4 0 3.41502644956 0 2.2 Z" fill-opacity="1"/></g><g/><g/><g/><g/><g/><g/><g/><g/><g/><g/><g/><g/><g/><g/><g/><g/><g/><g/><g/><g/><g/><g/><g/><g/><g/><g/><g/><g/><g/><g/><g/><g/><g/><g/><g/><g/><g/><g/><g/><g/><g/><g/><g/><g/><g/><g/><g/><g/><g/><g transform="translate(190,270)"><path fill="rgb(255,0,0)" stroke="none" paint-order="stroke fill markers" d=" M 0 3.5199999999999996 C 0 1.5759576807039999 1.5759576807039999 0 3.5199999999999996 0 C 5.4640423192959995 0 7.039999999999999 1.5759576807039999 7.039999999999999 3.5199999999999996 C 7.039999999999999 5.4640423192959995 5.4640423192959995 7.039999999999999 3.5199999999999996 7.039999999999999 C 1.5759576807039999 7.039999999999999 0 5.4640423192959995 0 3.5199999999999996 Z" fill-opacity="1"/></g><g transform="translate(190,280)"><path fill="rgb(255,0,0)" stroke="none" paint-order="stroke fill markers" d=" M 0 1.04 C 0 0.46562386020800006 0.46562386020800006 0 1.04 0 C 1.614376139792 0 2.08 0.46562386020800006 2.08 1.04 C 2.08 1.614376139792 1.614376139792 2.08 1.04 2.08 C 0.46562386020800006 2.08 0 1.614376139792 0 1.04 Z" fill-opacity="1"/></g><g transform="translate(190,290)"><path fill="rgb(255,0,0)" stroke="none" paint-order="stroke fill markers" d=" M 0 3.4799999999999995 C 0 1.558049070696 1.558049070696 0 3.4799999999999995 0 C 5.401950929303999 0 6.959999999999999 1.558049070696 6.959999999999999 3.4799999999999995 C 6.959999999999999 5.401950929303999 5.401950929303999 6.959999999999999 3.4799999999999995 6.959999999999999 C 1.558049070696 6.959999999999999 0 5.401950929303999 0 3.4799999999999995 Z" fill-opacity="1"/></g><g/><g/><g/><g/><g/><g/><g/><g/><g/><g/><g/><g/><g/><g/><g/><g/><g/><g/><g/><g/><g/><g/><g/><g/><g/><g/><g/><g/><g/><g/><g/><g/><g/><g/><g/><g/><g/><g/><g/><g/><g/><g/><g/><g/><g/><g/><g/><g/><g transform="translate(200,280)"><path fill="rgb(255,0,0)" stroke="none" paint-order="stroke fill markers" d=" M 0 1.56 C 0 0.6984357903120001 0.6984357903120001 0 1.56 0 C 2.421564209688 0 3.12 0.6984357903120001 3.12 1.56 C 3.12 2.421564209688 2.421564209688 3.12 1.56 3.12 C 0.6984357903120001 3.12 0 2.421564209688 0 1.56 Z" fill-opacity="1"/></g><g transform="translate(200,290)"><path fill="rgb(255,0,0)" stroke="none" paint-order="stroke fill markers" d=" M 0 3.04 C 0 1.3610543606080001 1.3610543606080001 0 3.04 0 C 4.718945639392 0 6.08 1.3610543606080001 6.08 3.04 C 6.08 4.718945639392 4.718945639392 6.08 3.04 6.08 C 1.3610543606080001 6.08 0 4.718945639392 0 3.04 Z" fill-opacity="1"/></g><g/><g/><g/><g/><g/><g/><g/><g/><g/><g/><g/><g/><g/><g/><g/><g/><g/><g/><g/><g/><g/><g/><g/><g/><g/><g/><g transform="translate(210,60)"><path fill="rgb(255,0,0)" stroke="none" paint-order="stroke fill markers" d=" M 0 4.96 C 0 2.220667640992 2.220667640992 0 4.96 0 C 7.699332359008 0 9.92 2.220667640992 9.92 4.96 C 9.92 7.699332359008 7.699332359008 9.92 4.96 9.92 C 2.220667640992 9.92 0 7.699332359008 0 4.96 Z" fill-opacity="1"/></g><g/><g/><g/><g/><g/><g/><g/><g/><g/><g/><g transform="translate(210,170)"><path fill="rgb(255,0,0)" stroke="none" paint-order="stroke fill markers" d=" M 0 3.16 C 0 1.4147801906320001 1.4147801906320001 0 3.16 0 C 4.905219809368 0 6.32 1.4147801906320001 6.32 3.16 C 6.32 4.905219809368 4.905219809368 6.32 3.16 6.32 C 1.4147801906320001 6.32 0 4.905219809368 0 3.16 Z" fill-opacity="1"/></g><g/><g/><g/><g/><g/><g/><g/><g/><g/><g/><g/><g transform="translate(210,290)"><path fill="rgb(255,0,0)" stroke="none" paint-order="stroke fill markers" d=" M 0 1.04 C 0 0.46562386020800006 0.46562386020800006 0 1.04 0 C 1.614376139792 0 2.08 0.46562386020800006 2.08 1.04 C 2.08 1.614376139792 1.614376139792 2.08 1.04 2.08 C 0.46562386020800006 2.08 0 1.614376139792 0 1.04 Z" fill-opacity="1"/></g><g transform="translate(210,300)"><path fill="rgb(255,0,0)" stroke="none" paint-order="stroke fill markers" d=" M 0 3.84 C 0 1.719226560768 1.719226560768 0 3.84 0 C 5.960773439232 0 7.68 1.719226560768 7.68 3.84 C 7.68 5.960773439232 5.960773439232 7.68 3.84 7.68 C 1.719226560768 7.68 0 5.960773439232 0 3.84 Z" fill-opacity="1"/></g><g/><g/><g/><g/><g/><g/><g/><g/><g/><g/><g/><g/><g/><g/><g/><g/><g/><g/><g/><g/><g/><g/><g/><g/><g/><g/><g/><g/><g/><g/><g/><g/><g/><g/><g/><g/><g/><g/><g/><g/><g/><g/><g/><g/><g/><g/><g/><g/><g/><g transform="translate(220,300)"><path fill="rgb(255,0,0)" stroke="none" paint-order="stroke fill markers" d=" M 0 4.28 C 0 1.916221270856 1.916221270856 0 4.28 0 C 6.6437787291440005 0 8.56 1.916221270856 8.56 4.28 C 8.56 6.6437787291440005 6.6437787291440005 8.56 4.28 8.56 C 1.916221270856 8.56 0 6.6437787291440005 0 4.28 Z" fill-opacity="1"/></g><g/><g/><g/><g/><g/><g/><g/><g/><g/><g/><g/><g/><g/><g/><g/><g/><g/><g/><g/><g/><g/><g/><g/><g/><g/><g/><g/><g/><g/><g/><g/><g/><g/><g/><g/><g/><g/><g/><g/><g/><g/><g/><g/><g/><g/><g/><g/><g/><g/><g/><g/><g/><g/><g/><g/><g/><g/><g/><g/><g/><g/><g/><g/><g/><g/><g/><g/><g/><g/><g/><g/><g/><g/><g/><g/><g/><g/><g/><g/><g/><g/><g/><g/><g/><g/><g/><g/><g/><g/><g/><g/><g/><g/><g/><g/><g/><g/><g/><g/><g/><g/><g/><g/><g/><g/><g/><g/><g/><g/><g/><g/><g/><g/><g/><g/><g/><g/><g/><g/><g/><g/><g/><g/><g/><g/><g/><g/><g/><g/><g/><g/><g/><g/><g/><g/><g/><g/><g/><g/><g/><g/><g/><g/><g/><g/><g/><g/><g/><g/><g/><g/><g/><g/><g/><g/><g/><g/><g/><g/><g/><g/><g/><g/><g/><g/><g/><g/><g/><g/><g/><g/><g/><g/><g/><g/><g/><g/><g/><g/><g/><g/><g/><g/><g/><g/><g/><g/><g/><g/><g/><g/><g/><g/><g/><g/><g/><g/><g/><g/><g/><g/><g/><g/><g/><g/><g/><g/><g/><g/><g/><g/><g/><g/><g/><g/><g/><g/><g/><g/><g/><g/><g/><g/><g/><g/><g/><g/><g/><g/><g/><g/><g/><g/><g/><g/><g/><g/><g/><g/><g/><g/><g/><g/><g/><g/><g/><g/><g/><g/><g/><g/><g/><g/><g/><g/><g/><g/><g/><g/><g/><g/><g/><g/><g/><g/><g/><g/><g/><g/><g/><g/><g/><g/><g/><g/><g/><g/><g/><g/><g/><g/><g/><g/><g/><g/><g/><g/><g/><g/><g/><g/><g/><g/><g/><g/><g/><g/><g/><g/><g/><g/><g/><g/><g/><g/><g/><g/><g/><g/><g/><g/><g/><g/><g/><g/><g/><g/><g/><g/><g/><g/><g/><g/><g/><g/><g/><g/><g/><g/><g/><g/><g/><g/><g/><g/><g/><g/><g/><g/><g/><g/><g/><g/><g/><g/><g/><g/><g/><g/><g/><g/><g/><g/><g/><g/><g/><g/><g/><g/><g/><g/><g/><g/><g/><g/><g/><g/><g/><g/><g/><g/><g/><g/><g/><g/><g/><g/><g/><g/><g/><g/><g/><g/><g/><g/><g/><g/><g/><g/><g/><g/><g/><g/><g/><g/><g/><g/><g/><g/><g/><g/><g/><g/><g/><g/><g/><g/><g/><g/><g/><g/><g/><g/><g/><g/><g/><g/><g/><g/><g/><g/><g/><g/><g/><g/><g/><g/><g/><g/><g/><g/><g/><g/><g/><g/><g/><g/><g/><g/><g/><g/><g/><g/><g/><g/><g/><g/><g/><g/><g/><g/><g/><g/><g/><g/><g/><g/><g/><g/><g/><g/><g/><g/><g/><g/><g/><g/><g/><g/><g/><g/><g/><g/><g/><g/><g/><g/><g/><g/><g/><g/><g/><g/><g/><g/><g/><g/><g/><g/><g/><g/><g/><g/><g/><g/><g/><g/><g/><g/><g/><g/><g/><g/><g/><g/><g/><g/><g/><g/><g/><g/><g/><g/><g/><g/><g/><g/><g/><g/><g/><g/><g/><g/><g/><g/><g/><g/><g/><g/><g/><g/><g/><g/><g/><g/><g/><g/><g/><g/><g/><g/><g/><g/><g/><g/><g/><g/><g/><g/><g/><g/><g/><g/><g/><g/><g/><g/><g/><g/><g/><g/><g/><g/><g/><g/><g/><g/><g/><g/><g/><g/><g/><g/><g/><g/><g/><g/><g/><g/><g/><g/><g/><g/><g/><g/><g/><g/><g/><g/><g/><g/><g/><g/><g/><g/><g/><g/><g/><g/><g/><g/><g/><g/><g/><g/><g/><g/><g/><g/><g/><g/><g/><g/><g/><g/><g/><g/><g transform="translate(340,480)"><path fill="rgb(255,0,0)" stroke="none" paint-order="stroke fill markers" d=" M 0 4.76 C 0 2.131124590952 2.131124590952 0 4.76 0 C 7.3888754090479996 0 9.52 2.131124590952 9.52 4.76 C 9.52 7.3888754090479996 7.3888754090479996 9.52 4.76 9.52 C 2.131124590952 9.52 0 7.3888754090479996 0 4.76 Z" fill-opacity="1"/></g><g/><g/><g/><g/><g/><g/><g/><g/><g/><g/><g/><g/><g/><g/><g/><g/><g/><g/><g/><g/><g/><g/><g/><g/><g/><g/><g/><g/><g/><g/><g/><g/><g/><g/><g/><g/><g/><g/><g/><g/><g/><g/><g/><g/><g/><g/><g/><g/><g/><g/><g/><g/><g/><g/><g/><g/><g/><g/><g/><g/><g/><g/><g/><g/><g/><g/><g/><g/><g/><g/><g/><g/><g/><g/><g/><g/><g/><g/><g/><g/><g/><g/><g/><g/><g/><g/><g/><g/><g/><g/><g/><g/><g/><g/><g/><g/><g/><g/><g/><g/><g/><g/><g/><g/><g/><g/><g/><g/><g/><g/><g/><g/><g/><g/><g/><g/><g/><g/><g/><g/><g/><g/><g/><g/><g/><g/><g/><g/><g/><g/><g/><g/><g/><g/><g/><g/><g/><g/><g/><g/><g/><g/><g/><g/><g/><g/><g/><g/><g/><g/><g/><g/><g/><g/><g/><g/><g/><g/><g/><g/><g/><g/><g/><g/><g/><g/><g/><g/><g/><g/><g/><g/><g/><g/><g/><g/><g/><g/><g/><g/><g/><g/><g/><g/><g/><g/><g/><g/><g/><g/><g/><g/><g/><g/><g/><g/><g/><g/><g/><g/><g/><g/><g/><g/><g/><g/><g/><g/><g/><g/><g/><g/><g/><g/><g/><g/><g/><g/><g/><g/><g/><g/><g/><g/><g/><g/><g/><g/><g/><g/><g/><g/><g/><g/><g/><g/><g/><g/><g/><g/><g/><g/><g/><g/><g/><g/><g/><g/><g/><g/><g/><g/><g/><g/><g/><g/><g/><g/><g/><g/><g/><g/><g/><g/><g/><g/><g/><g/><g/><g/><g/><g/><g/><g/><g/><g/><g/><g/><g/><g/><g/><g/><g/><g/><g/><g/><g/><g/><g/><g/><g/><g/><g/><g/><g/><g/><g/><g/><g/><g/><g/><g/><g/><g/><g/><g/><g/><g/><g/><g/><g/><g/><g/><g/><g/><g/><g/><g/><g/><g/><g/><g/><g/><g/><g/><g/><g/><g/><g/><g/><g/><g/><g/><g/><g/><g/><g/><g/><g/><g/><g/><g/><g/><g/><g/><g/><g/><g/><g/><g/><g/><g/><g/><g/><g/><g/><g/><g/><g/><g/><g/><g/><g/><g/><g/><g/><g/><g/><g/><g/><g/><g/><g/><g/><g/><g/><g/><g/><g/><g/><g/><g/><g/><g/><g/><g/><g/><g/><g/><g/><g/><g/><g/><g/><g/><g/><g/><g/><g/><g/><g/><g/><g/><g/><g/><g/><g/><g/><g/><g/><g/><g/><g/><g/><g/><g/><g/><g/><g/><g/><g/><g/><g/><g/><g/><g/><g/><g/><g/><g/><g/><g/><g/><g/><g/><g/><g/><g/><g/><g/><g/><g/><g/><g/><g/><g/><g/><g/><g/><g/><g/><g/><g/><g/><g/><g/><g/><g/><g/><g/><g/><g/><g/><g/><g/><g/><g/><g/><g/><g/><g/><g/><g/><g/><g/><g/><g/><g/><g/><g/><g/><g/><g/><g/><g/><g/><g/><g/><g/><g/><g/><g/><g/><g/><g/><g/><g/><g/><g/><g/><g/><g/><g/><g/><g/><g/><g/><g/><g/><g/><g/><g/><g/><g/><g/><g/><g/><g/><g/><g/><g/><g/><g/><g/><g/><g/><g/><g/><g/><g/><g/><g/><g/><g/><g/><g/><g/><g/><g/><g/><g/><g/><g/><g/><g/><g/><g/><g/><g/><g/><g/><g/><g/><g/><g/><g/><g/><g/><g/><g/><g/><g/><g/><g/><g/><g/><g/><g/><g/><g/><g/><g/><g/><g/><g/><g/><g/><g/><g/><g/><g/><g/><g/><g/><g/><g/><g/><g/><g/><g/><g/><g/><g/><g/><g/><g/><g/><g/><g/><g/><g/><g/><g/><g/><g/><g/><g/><g/><g/><g/><g/><g/><g/><g/><g/><g/><g/><g/><g/><g/><g/><g/><g/><g/><g/><g/><g/><g/><g/><g/><g/><g/><g/><g/><g/><g/><g/><g/><g/><g/><g/><g/><g/><g/><g/><g/><g/><g/><g/><g/><g/><g/><g/><g/><g/><g/><g/><g/><g/><g/><g/><g/><g/><g/><g/><g/><g/><g/><g/><g/><g/><g/><g/><g/><g/><g/><g/><g/><g/><g/><g/><g/><g/><g/><g/><g/><g/><g/><g/><g/><g/><g/><g/><g/><g/><g/><g/><g/><g/><g/><g/><g/><g/><g/><g/><g/><g/><g/><g/><g/><g/><g/><g/><g/><g/><g/><g/><g/><g/><g/><g/><g/><g/><g/><g/><g/><g/><g/><g/><g/><g/><g/><g/><g/><g/><g/><g/><g/><g/><g/><g/><g/><g/><g/><g/><g/><g/><g/><g/><g/><g/></g></svg>